<svg version="1.2" xmlns="http://www.w3.org/2000/svg" viewBox="0 0 4457 2507" width="4457" height="2507">
	<title>vecteezy_error-404-page-not-found-concept-illustration-web-page_7162540-ai</title>
	<defs>
		<linearGradient id="g1" x1="2370.7" y1="1553.5" x2="2507.7" y2="1467.3" gradientUnits="userSpaceOnUse">
			<stop offset="0" stop-color="#e42320"/>
			<stop offset=".4" stop-color="#b02320"/>
			<stop offset="1" stop-color="#e8521d"/>
		</linearGradient>
		<linearGradient id="g2" x1="3107.7" y1="1368.2" x2="3148.1" y2="1368.2" gradientUnits="userSpaceOnUse">
			<stop offset="0" stop-color="#b53418"/>
			<stop offset="1" stop-color="#b21917"/>
		</linearGradient>
		<linearGradient id="g3" x1="3259.2" y1="1242" x2="3408.8" y2="1242" gradientUnits="userSpaceOnUse">
			<stop offset="0" stop-color="#e73f3e"/>
			<stop offset="1" stop-color="#eb683b"/>
		</linearGradient>
		<linearGradient id="g4" x1="3162.5" y1="1291.1" x2="2956.4" y2="1291.1" gradientUnits="userSpaceOnUse">
			<stop offset="0" stop-color="#b53418"/>
			<stop offset="1" stop-color="#b21917"/>
		</linearGradient>
		<linearGradient id="g5" x1="3120.8" y1="1116.5" x2="3304" y2="1116.5" gradientUnits="userSpaceOnUse">
			<stop offset="0" stop-color="#f08864"/>
			<stop offset="1" stop-color="#ec6969"/>
		</linearGradient>
		<linearGradient id="g6" x1="3160.6" y1="1130.7" x2="3160.6" y2="1261" gradientUnits="userSpaceOnUse">
			<stop offset="0" stop-color="#b53418"/>
			<stop offset="1" stop-color="#b21917"/>
		</linearGradient>
		<linearGradient id="g7" x1="2762.3" y1="1264.3" x2="2791.4" y2="1264.3" gradientUnits="userSpaceOnUse">
			<stop offset="0" stop-color="#b53418"/>
			<stop offset="1" stop-color="#b21917"/>
		</linearGradient>
		<linearGradient id="g8" x1="3437.8" y1="830.4" x2="3394.4" y2="1666.8" gradientUnits="userSpaceOnUse">
			<stop offset="0" stop-color="#e8521d"/>
			<stop offset="1" stop-color="#e42320"/>
		</linearGradient>
		<linearGradient id="g9" x1="2764" y1="836.3" x2="3115.3" y2="836.3" gradientUnits="userSpaceOnUse">
			<stop offset="0" stop-color="#e73f3e"/>
			<stop offset="1" stop-color="#eb683b"/>
		</linearGradient>
		<linearGradient id="g10" x1="3078.5" y1="836.3" x2="3277.8" y2="836.3" gradientUnits="userSpaceOnUse">
			<stop offset="0" stop-color="#f08864"/>
			<stop offset="1" stop-color="#ec6969"/>
		</linearGradient>
		<linearGradient id="g11" x1="1596.5" y1="1242.5" x2="1709.9" y2="1242.5" gradientUnits="userSpaceOnUse">
			<stop offset="0" stop-color="#e73f3e"/>
			<stop offset="1" stop-color="#eb683b"/>
		</linearGradient>
		<linearGradient id="g12" x1="1267.9" y1="1242.6" x2="1452.2" y2="1242.6" gradientUnits="userSpaceOnUse">
			<stop offset="0" stop-color="#b53418"/>
			<stop offset="1" stop-color="#b21917"/>
		</linearGradient>
		<linearGradient id="g13" x1="1450.8" y1="1115.6" x2="1599.7" y2="1115.6" gradientUnits="userSpaceOnUse">
			<stop offset="0" stop-color="#f08864"/>
			<stop offset="1" stop-color="#ec6969"/>
		</linearGradient>
		<linearGradient id="g14" x1="1078.7" y1="832.3" x2="1402.4" y2="832.3" gradientUnits="userSpaceOnUse">
			<stop offset="0" stop-color="#e73f3e"/>
			<stop offset="1" stop-color="#eb683b"/>
		</linearGradient>
		<linearGradient id="g15" x1="1399.7" y1="832.3" x2="1566" y2="832.3" gradientUnits="userSpaceOnUse">
			<stop offset="0" stop-color="#f08864"/>
			<stop offset="1" stop-color="#ec6969"/>
		</linearGradient>
		<linearGradient id="g16" x1="1746.2" y1="750.4" x2="1702.8" y2="1586.9" gradientUnits="userSpaceOnUse">
			<stop offset="0" stop-color="#e8521d"/>
			<stop offset="1" stop-color="#e42320"/>
		</linearGradient>
		<linearGradient id="g17" x1="1923.1" y1="932.4" x2="2573.7" y2="932.4" gradientUnits="userSpaceOnUse">
			<stop offset="0" stop-color="#b53418"/>
			<stop offset="1" stop-color="#b21917"/>
		</linearGradient>
		<linearGradient id="g18" x1="2019.1" y1="684" x2="2676.1" y2="684" gradientUnits="userSpaceOnUse">
			<stop offset="0" stop-color="#f08864"/>
			<stop offset="1" stop-color="#ec6969"/>
		</linearGradient>
		<linearGradient id="g19" x1="1763.1" y1="691.4" x2="2736.4" y2="691.4" gradientUnits="userSpaceOnUse">
			<stop offset="0" stop-color="#e8521d"/>
			<stop offset="1" stop-color="#e42320"/>
		</linearGradient>
		<linearGradient id="g20" x1="1930.7" y1="855.3" x2="2574.9" y2="855.3" gradientUnits="userSpaceOnUse">
			<stop offset="0" stop-color="#cacaca"/>
			<stop offset="1" stop-color="#cecdce"/>
		</linearGradient>
		<linearGradient id="g21" x1="1930.7" y1="855.3" x2="2574.7" y2="855.3" gradientUnits="userSpaceOnUse">
			<stop offset="0" stop-color="#f9fcfc"/>
			<stop offset="1" stop-color="#d1e8f9"/>
		</linearGradient>
		<linearGradient id="g22" x1="2054.6" y1="1395.8" x2="1847" y2="1145" gradientUnits="userSpaceOnUse">
			<stop offset="0" stop-color="#ffffff"/>
			<stop offset="1" stop-color="#cecdce"/>
		</linearGradient>
		<linearGradient id="g23" x1="2367.5" y1="1104.2" x2="2390.7" y2="1064" gradientUnits="userSpaceOnUse">
			<stop offset="0" stop-color="#6b6b6b"/>
			<stop offset=".3" stop-color="#5a5e5b"/>
			<stop offset="1" stop-color="#8b898b"/>
		</linearGradient>
		<linearGradient id="g24" x1="2080" y1="1104.2" x2="2103.2" y2="1064" gradientUnits="userSpaceOnUse">
			<stop offset="0" stop-color="#6b6b6b"/>
			<stop offset=".3" stop-color="#5a5e5b"/>
			<stop offset="1" stop-color="#8b898b"/>
		</linearGradient>
		<linearGradient id="g25" x1="2141.7" y1="1152.1" x2="2378.3" y2="1152.1" gradientUnits="userSpaceOnUse">
			<stop offset="0" stop-color="#6b6b6b"/>
			<stop offset=".3" stop-color="#5a5e5b"/>
			<stop offset="1" stop-color="#8b898b"/>
		</linearGradient>
	</defs>
	<style>
		.s0 { opacity: .5;fill: #cecdce } 
		.s1 { fill: url(#g1) } 
		.s2 { fill: url(#g2) } 
		.s3 { fill: url(#g3) } 
		.s4 { fill: url(#g4) } 
		.s5 { fill: url(#g5) } 
		.s6 { fill: url(#g6) } 
		.s7 { fill: url(#g7) } 
		.s8 { fill: url(#g8) } 
		.s9 { fill: url(#g9) } 
		.s10 { fill: url(#g10) } 
		.s11 { fill: url(#g11) } 
		.s12 { fill: url(#g12) } 
		.s13 { fill: url(#g13) } 
		.s14 { fill: url(#g14) } 
		.s15 { fill: url(#g15) } 
		.s16 { fill: url(#g16) } 
		.s17 { fill: url(#g17) } 
		.s18 { fill: url(#g18) } 
		.s19 { fill: url(#g19) } 
		.s20 { opacity: .3;fill: url(#g20) } 
		.s21 { opacity: .2;fill: url(#g21) } 
		.s22 { opacity: .6;mix-blend-mode: color-dodge;fill: url(#g22) } 
		.s23 { fill: url(#g23) } 
		.s24 { fill: url(#g24) } 
		.s25 { fill: url(#g25) } 
	</style>
	<g id="321353356351 1">
		<path id="&lt;Path&gt;" class="s0" d="m597.1 1007.2c84.9-142.1 247.6-221.8 410.1-252.8 162.6-31.1 329.7-21.1 495.1-26.8 370.2-12.6 737.5-105.2 1069.5-269.4 261.7-129.5 516.2-307.1 808-316.6 308.2-10 611.6 195.5 716.6 485.4 88.1 243.4 41.2 519.6-71.7 752.5-101 208.3-259 395.6-467.7 496-273.7 131.6-597.1 100.1-892.6 30.1-295.5-70-586.4-175.9-889.9-185.3-279.1-8.5-559.5 83.2-835.7 33.8-492.5-88-420.2-615.4-341.7-746.9z"/>
		<g id="Folder 1">
			<path id="&lt;Path&gt;" class="s1" d="m2898.5 2239.9c-40.1 25.2-93.1 11.7-116.3-29.7l-377.7-674.8 73.1-46 444.6 632.8c27.2 38.8 16.4 92.5-23.7 117.7z"/>
			<g id="&lt;Group&gt;">
				<g id="&lt;Group&gt;">
					<path id="&lt;Path&gt;" class="s2" d="m3144.9 1562.3l-37.2-52.3 3.1-139.8 37.3 48.4z"/>
				</g>
				<g id="&lt;Group&gt;">
					<path id="&lt;Path&gt;" class="s3" d="m3300.8 1288.9l-41.6-44.8 104.9-0.1 44.7 44.8z"/>
				</g>
				<g id="&lt;Group&gt;">
					<path id="&lt;Path&gt;" class="s4" d="m2976.9 1289.1l-32.7-44.9 173.9-0.1 37.6 44.9z"/>
				</g>
				<g id="&lt;Group&gt;">
					<path id="&lt;Path&gt;" class="s5" d="m3158.6 1159.8l-37.8-41.3 141.4 0.1 41.8 41.2z"/>
				</g>
				<g id="&lt;Group&gt;">
					<path id="&lt;Path&gt;" class="s6" d="m3155.7 1289l-37.6-44.9 2.7-125.6 37.8 41.3z"/>
				</g>
				<g id="&lt;Group&gt;">
					<path id="&lt;Path&gt;" class="s7" d="m2789.7 1419.3l-27.4-48.6 1.7-104.4 27.4 45.6z"/>
				</g>
				<g id="&lt;Group&gt;">
					<path id="&lt;Path&gt;" class="s8" d="m3277.8 872.1l-300.9 417 178.8-0.1 2.9-129.2h145.4l-3.2 129.1 108-0.1-3.5 129.3-107.7 0.2-3.5 143.5-149.2 0.5 3.2-143.7-358.4 0.7 1.7-107.4 323.9-440.2z"/>
				</g>
				<g id="&lt;Group&gt;">
					<path id="&lt;Path&gt;" class="s9" d="m2791.4 1311.9l-27.4-45.6 314.5-428 36.8 33.4z"/>
				</g>
				<g id="&lt;Group&gt;">
					<path id="&lt;Path&gt;" class="s10" d="m3115.3 871.7l-36.8-33.4 158 0.5 41.3 33.3z"/>
				</g>
			</g>
			<g id="&lt;Group&gt;">
				<g id="&lt;Group&gt;">
					<path id="&lt;Path&gt;" class="s11" d="m1599.5 1289.9l-3-45.3 107.3-0.1 6.1 45.3z"/>
				</g>
				<g id="&lt;Group&gt;">
					<path id="&lt;Path&gt;" class="s12" d="m1267.9 1290.2l6.5-45.5 177.8-0.1-1.3 45.4z"/>
				</g>
				<g id="&lt;Group&gt;">
					<path id="&lt;Path&gt;" class="s13" d="m1450.8 1159.4l1.3-41.8 144.6 0.1 3 41.7z"/>
				</g>
				<g id="&lt;Group&gt;">
					<path id="&lt;Path&gt;" class="s14" d="m1078.7 1313.3l11.9-46.2 311.8-432.8-2.7 33.6z"/>
				</g>
				<g id="&lt;Group&gt;">
					<path id="&lt;Path&gt;" class="s15" d="m1399.7 867.9l2.7-33.6 161.6 0.5 2 33.5z"/>
				</g>
				<g id="&lt;Group&gt;">
					<path id="&lt;Path&gt;" class="s16" d="m1566 868.3l-298.1 421.9 183-0.2-0.1-130.6h148.9l-0.2 130.5 110.4-0.1-0.5 130.9-110.2 0.2-0.2 145.1-152.7 0.5-0.1-145.3-366.8 0.6-0.7-108.5 321-445.4z"/>
				</g>
			</g>
			<g id="&lt;Group&gt;">
				<g id="&lt;Group&gt;">
					<path id="&lt;Path&gt;" class="s17" d="m2553.3 1299.4c-15.2 39.3-38 74.9-66.4 105.1-28.5 30.1-62.7 54.9-101 72.4-38.3 17.6-80.6 28-125.3 29.5-44.7 1.5-87.6-6.1-127-21.1-39.4-15-75.3-37.3-105.9-65.4-30.6-28.2-55.8-62.1-73.9-100-18.2-38-29.2-80.2-31.1-124.8-1.1-23.4 0.4-46.3 4.2-68.5 3.8-22.3 9.9-43.8 18-64.3 8.1-20.5 18.3-40 30.3-58.3 12.1-18.3 25.9-35.3 41.3-50.8l18.8-18.9c-14.8 14.9-28 31.1-39.5 48.6-11.5 17.5-21.2 36.2-29 55.8-7.8 19.6-13.6 40.2-17.3 61.5-3.6 21.2-5 43.1-4 65.5 1.8 42.7 12.3 83 29.6 119.4 17.3 36.3 41.5 68.7 70.7 95.6 29.2 26.9 63.6 48.3 101.2 62.6 37.7 14.3 78.8 21.6 121.5 20.1 42.8-1.4 83.2-11.3 119.8-28.2 36.6-16.8 69.3-40.5 96.5-69.3 27.3-28.9 49-63 63.6-100.5 14.6-37.6 22-78.7 20.6-121.5q-0.3-7.1-0.8-14-0.6-7-1.4-13.9-0.9-6.8-2-13.6-1.1-6.8-2.6-13.5l5.6 26q1.5 7 2.7 14.1 1.2 7.1 2.1 14.3 0.9 7.2 1.4 14.4 0.6 7.3 0.9 14.7c1.4 44.8-6.3 87.7-21.6 127z"/>
					<path id="&lt;Path&gt;" class="s18" d="m2676.1 944.2c-21.7-38.7-48.6-74.2-79.7-105.5-31.1-31.3-66.4-58.4-105-80.5-38.5-22.1-80.3-39.1-124.3-50.1-44.1-11.1-90.4-16.1-137.9-14.3-19 0.7-37.7 2.5-56.1 5.3-18.3 2.8-36.3 6.6-53.9 11.4-17.6 4.7-34.8 10.5-51.5 17.1-16.7 6.6-32.9 14.1-48.6 22.4l18.7-9.9c15-8 30.5-15.1 46.5-21.4 15.9-6.4 32.4-11.8 49.2-16.4 16.8-4.6 34-8.2 51.5-10.9 17.5-2.7 35.4-4.4 53.6-5.1 45.4-1.7 89.7 3.2 131.7 13.7 42.1 10.5 82.1 26.8 118.9 47.9 36.8 21.1 70.6 47.1 100.3 77 29.7 29.9 55.4 63.8 76.2 100.8q5.2 9.2 10.4 18.5z"/>
					<g id="&lt;Group&gt;">
						<path id="&lt;Compound Path&gt;" fill-rule="evenodd" class="s19" d="m2705.1 1356.9c-23 58.7-57.2 111.9-99.9 156.9-42.7 45-93.9 81.9-151.2 108.1-57.2 26.1-120.4 41.5-187.2 43.7-66.8 2.1-130.9-9.2-189.8-31.6-58.8-22.3-112.5-55.7-158.2-97.6-45.7-42-83.6-92.5-110.8-149.2-27.2-56.8-43.8-119.8-46.9-186.5-3.2-66.8 7.4-131.2 29.4-190.3 22-59.2 55.4-113.3 97.7-159.3 42.4-46.1 93.7-84.1 151.3-111.3 57.7-27.2 121.8-43.4 189.6-46 68-2.6 133.3 8.8 193.2 31.6 59.9 22.9 114.3 57.1 160.4 100.1 46.1 43 84 94.7 110.7 152.4 26.8 57.8 42.5 121.6 44.6 188.8 2 67.1-9.9 131.4-32.9 190.2zm-130.2-180.9c0-1.2 0-2.4 0-3.6q-0.1-1.1-0.2-2.2c-1.6-44.1-12.2-85.8-29.8-123.6-18-38.4-43.2-72.9-74-101.4-30.7-28.6-66.9-51.3-106.8-66.5-39.9-15.2-83.4-22.8-128.6-21.2-45.2 1.7-87.9 12.4-126.4 30.5-38.4 18-72.6 43.3-101 73.9-11.1 12.1-21.3 24.9-30.4 38.5-0.2 0.1-0.3 0.2-0.3 0.4-12.9 19.1-23.8 39.6-32.4 61.2q-1.1 3-2.3 6c-14.8 39.5-22 82.5-20 127.1 1.9 44.6 12.9 86.7 31.1 124.8 18.1 37.9 43.3 71.8 73.9 99.9 30.5 28.2 66.5 50.5 105.9 65.5 39.4 15 82.3 22.5 127 21.1 44.7-1.5 87-11.9 125.3-29.5 38.3-17.6 72.5-42.3 101-72.4 28.4-30.2 51.2-65.8 66.4-105.1 14.8-38.1 22.6-79.8 21.6-123.3q0 0 0-0.1z"/>
					</g>
				</g>
			</g>
			<g id="&lt;Group&gt;">
				<path id="&lt;Path&gt;" class="s20" d="m2574.9 1176q0 0.1 0 0.1c-4.4 174.2-146.9 313.9-322 313.9-177.9 0-322.2-144.2-322.2-322.2 0-1 0-2.2 0.1-3.2v-0.3c0.6-59.8 17.5-115.7 46.6-163.5 0-0.2 0.1-0.3 0.3-0.4 9.1-13.6 19.3-26.4 30.4-38.5 28.4-30.6 62.6-55.9 101-73.9 38.5-18.1 81.2-28.8 126.4-30.5 45.2-1.6 88.7 6 128.6 21.2 14.7 5.6 28.9 12.3 42.6 19.8 23.3 13 44.8 28.7 64.2 46.7 30.8 28.5 56 63 74 101.4 17.6 37.8 28.2 79.5 29.8 123.6q0.1 1.1 0.2 2.2c0 1.2 0 2.4 0 3.6z"/>
				<path id="&lt;Path&gt;" class="s21" d="m2574.7 1170.2c-6.7 171.9-148.2 309.2-321.8 309.2-140 0-259.1-89.3-303.5-214-12.1-33.8-18.7-70.2-18.7-108.2 0-33.1 5-65.1 14.3-95.2 14.8-37.2 36.3-71.1 63.1-100.1 28.4-30.6 62.6-55.9 101-73.9 38.5-18.1 81.2-28.8 126.4-30.5 45.2-1.6 88.7 6 128.6 21.2 39.9 15.2 76.1 37.9 106.8 66.5 30.8 28.5 56 63 74 101.4 17.6 37.8 28.2 79.5 29.8 123.6z"/>
				<path id="&lt;Path&gt;" class="s22" d="m2416.3 976.9c0 178.2-144.4 322.6-322.6 322.6-51.9 0-100.9-12.3-144.3-34.1-11.3-31.6-17.8-65.5-18.6-100.8v-0.3c0.6-59.8 17.5-115.7 46.6-163.5 0-0.2 0.1-0.3 0.3-0.4 9.1-13.6 19.3-26.4 30.4-38.5 28.4-30.6 62.6-55.9 101-73.9 38.5-18.1 81.2-28.8 126.4-30.5 45.2-1.6 88.7 6 128.6 21.2 14.7 5.6 28.9 12.3 42.6 19.8 6.3 25.1 9.6 51.4 9.6 78.4z"/>
			</g>
			<g id="&lt;Group&gt;">
				<g id="&lt;Group&gt;">
					<path id="&lt;Path&gt;" class="s23" d="m2427 1098.3c0 12.8-10.4 23.2-23.2 23.2-12.9 0-23.3-10.4-23.3-23.2 0-12.8 10.4-23.2 23.3-23.2 12.8 0 23.2 10.4 23.2 23.2z"/>
					<path id="&lt;Path&gt;" class="s24" d="m2139.5 1098.3c0 12.8-10.4 23.2-23.2 23.2-12.8 0-23.2-10.4-23.2-23.2 0-12.8 10.4-23.2 23.2-23.2 12.8 0 23.2 10.4 23.2 23.2z"/>
				</g>
				<path id="&lt;Path&gt;" class="s25" d="m2366.9 1254.3c-5.3 0-10.3-3.2-12.3-8.5-14.8-39.2-53-65.5-94.9-65.5-41.9 0-78.9 25.2-94.3 64.1-2.7 6.8-10.3 10.1-17.1 7.4-6.7-2.7-10-10.3-7.4-17.1 19.5-49 66.1-80.6 118.8-80.6 52.8 0 100.8 33.1 119.5 82.4 2.5 6.8-0.9 14.4-7.7 17-1.5 0.5-3.1 0.8-4.6 0.8z"/>
			</g>
		</g>
		<path id="&lt;Path&gt;" class="s0" d="m3837 2192.7c-133.7 61.3-275.6 172.3-429 164.4-98.2-5-200.1-80.8-196.5-179 3.2-90.2 90.9-156.3 178.6-177.7 87.6-21.4 179.9-12.2 269-26.6 115-18.6 222.9-78 300.3-165 53.8-60.6 93.5-134.2 156.4-185.3 62.9-51 162.9-71.8 221.8-16.3 39.2 36.9 48.4 97.9 34.3 149.9-14.1 51.9-47.8 96.3-84.4 135.8-124.2 134-286 224.5-450.5 299.8z"/>
		<path id="&lt;Path&gt;" class="s0" d="m694.7 1850.1c151.8 59.5 321.9 46 482.3 17 121.7-21.9 242.9-52.4 366.5-53.8 123.7-1.4 253.5 30.1 342.6 115.9 89.1 85.8 123.6 234.2 55.4 337.4-46.9 70.9-132.7 109.1-217.5 115.7-84.8 6.6-169.3-14.7-249.9-41.7-187.8-62.8-365.3-157.6-558.6-200.8-105.4-23.6-213.6-31.3-320.5-46.1-107-14.7-214.6-37-310.4-87-95.7-49.9-179.2-130.7-213-233.2-33.7-102.6-9.4-227.1 73.9-295.8 100.2-82.7 256.8-58.1 288.6 68.8 35.1 140.2 123.2 249.7 260.6 303.6z"/>
		<path id="&lt;Path&gt;" class="s0" d="m1891.6 419.5c109.1-5.5 217.9-18.9 325-40.3 22.4-4.5 113-49.9 140.9-30.5 39.2 27.3-9.9 91-28.1 110.2-28.7 30.3-67.9 48.3-107 62.8-229.8 85.4-482.5 73.5-727.6 68.2-245.1-5.3-501.3-0.3-718.5 113.4-50.9 26.7-99.1 59.1-152.8 79.6-53.7 20.6-115.5 28.2-167.8 4.4-72.3-32.9-108.6-121.1-97.2-199.7 11.5-78.6 62.4-146.9 123.9-197.2 70.5-57.7 156.6-96.1 246.6-109.9 172-26.3 343.4 35.6 512.3 77.2 212.2 52.3 432.1 72.9 650.3 61.8z"/>
	</g>
</svg>