<svg xmlns="http://www.w3.org/2000/svg" version="1.1" xmlns:xlink="http://www.w3.org/1999/xlink" xmlns:svgjs="http://svgjs.dev/svgjs" width="1000" height="204" viewBox="0 0 1000 204"><g transform="matrix(1,0,0,1,-0.6060606060606233,-0.44074427442539843)"><svg viewBox="0 0 396 81" data-background-color="#282634" preserveAspectRatio="xMidYMid meet" height="204" width="1000" xmlns="http://www.w3.org/2000/svg" xmlns:xlink="http://www.w3.org/1999/xlink"><defs></defs><g id="tight-bounds" transform="matrix(1,0,0,1,0.2400000000000091,0.17500140308067103)"><svg viewBox="0 0 395.52 80.64999719383866" height="80.64999719383866" width="395.52"><g><svg viewBox="0 0 558.7499429038263 113.93401427804181" height="80.64999719383866" width="395.52"><g transform="matrix(1,0,0,1,0,15.74630732786251)"><svg viewBox="0 0 395.52 82.4413996223168" height="82.4413996223168" width="395.52"><g><svg viewBox="0 0 395.52 82.4413996223168" height="82.4413996223168" width="395.52"><g><svg viewBox="0 0 395.52 82.4413996223168" height="82.4413996223168" width="395.52"><g transform="matrix(1,0,0,1,0,0)"><svg width="395.52" viewBox="3 -34.900001525878906 216.89125061035156 45.116668701171875" height="82.4413996223168" data-palette-color="#ff4057"><g class="undefined-text-0" data-fill-palette-color="primary" id="text-0"><path d="M17.05-34.9L17.05-34.9Q21.75-34.9 24.53-34.13 27.3-33.35 28.5-31.4 29.7-29.45 29.7-25.9L29.7-25.9Q29.7-22.2 28.28-20.28 26.85-18.35 23.5-18.05L23.5-18.05 23.5-17.75Q27.6-17.4 29.23-15.08 30.85-12.75 30.85-8.6L30.85-8.6Q30.85-5.05 29.58-3.1 28.3-1.15 25.63-0.38 22.95 0.4 18.7 0.4L18.7 0.4Q15.15 0.4 12.48 0.38 9.8 0.35 7.58 0.25 5.35 0.15 3 0L3 0 3.75-6.3Q5.05-6.25 8.63-6.2 12.2-6.15 17-6.15L17-6.15Q18.8-6.15 19.78-6.48 20.75-6.8 21.13-7.75 21.5-8.7 21.5-10.45L21.5-10.45Q21.5-12.3 21.1-13.3 20.7-14.3 19.73-14.68 18.75-15.05 16.9-15.05L16.9-15.05 3.7-15.05 3.7-20.7 16.8-20.7Q18.35-20.7 19.2-21 20.05-21.3 20.4-22.15 20.75-23 20.75-24.6L20.75-24.6Q20.75-26.15 20.4-26.98 20.05-27.8 19.15-28.08 18.25-28.35 16.6-28.35L16.6-28.35Q13.6-28.35 11.35-28.38 9.1-28.4 7.28-28.38 5.45-28.35 3.75-28.2L3.75-28.2 3-34.5Q5.15-34.7 7.15-34.77 9.15-34.85 11.55-34.88 13.95-34.9 17.05-34.9ZM3-34.5L12.15-34.5 12.15 0 3 0 3-34.5ZM34.95-24.85L44.05-24.85 44.05-9.1Q44-7.95 44.55-7.45 45.1-6.95 46.35-6.95L46.35-6.95Q47.55-6.95 48.82-7.3 50.1-7.65 52.05-8.6L52.05-8.6 52.65-3.95Q50.05-1.6 47.5-0.45 44.95 0.7 42.2 0.7L42.2 0.7Q34.95 0.7 34.95-6.25L34.95-6.25 34.95-24.85ZM51.1-24.85L60.25-24.85 60.25 0 53.1 0 52-5 51.1-5.6 51.1-24.85ZM82.25-24.85L91.95-24.85 83.6-0.25Q82.95 1.7 81.8 3.75 80.65 5.8 78.82 7.43 77 9.05 74.4 9.8 71.8 10.55 68.3 9.95L68.3 9.95 67.65 4.95Q70.7 4.25 72.47 3.05 74.25 1.85 75.2-0.3L75.2-0.3 76.9-4.05Q77.45-5.25 77.87-7.03 78.3-8.8 78.55-10.05L78.55-10.05 82.25-24.85ZM62.9-24.85L72.55-24.85 76.3-10.05Q76.5-9 76.67-7.9 76.85-6.8 77-5.75L77-5.75 78.4-5.75 75.6 0 73.5 0Q72.45 0 71.67-0.6 70.9-1.2 70.6-2.15L70.6-2.15 62.9-24.85Z" fill="#ff4057" data-fill-palette-color="primary"></path><path d="M104.55-25.55L104.55-25.55Q106.5-25.55 108.73-25.4 110.95-25.25 113.1-25.05 115.25-24.85 116.8-24.5L116.8-24.5 116.2-19.1Q113.75-19.1 111.28-19.13 108.8-19.15 106.5-19.15L106.5-19.15Q104.7-19.15 103.8-19.1 102.9-19.05 102.58-18.82 102.25-18.6 102.25-18L102.25-18Q102.25-17.25 102.9-17 103.55-16.75 105.3-16.25L105.3-16.25 111.4-14.75Q114.65-13.9 116.2-12.28 117.75-10.65 117.75-7.4L117.75-7.4Q117.75-4.3 116.58-2.58 115.4-0.85 112.8-0.15 110.2 0.55 106.05 0.55L106.05 0.55Q104.35 0.55 101.05 0.4 97.75 0.25 93.85-0.4L93.85-0.4 94.4-5.85Q95.15-5.85 96.58-5.83 98-5.8 99.75-5.8 101.5-5.8 103.2-5.8L103.2-5.8Q105.65-5.8 106.9-5.88 108.15-5.95 108.58-6.25 109-6.55 109-7.15L109-7.15Q109-7.9 108.25-8.18 107.5-8.45 105.6-8.95L105.6-8.95 99.75-10.5Q97.2-11.2 95.83-12.3 94.45-13.4 93.95-14.9 93.45-16.4 93.45-18.35L93.45-18.35Q93.45-20.8 94.5-22.38 95.55-23.95 97.98-24.75 100.4-25.55 104.55-25.55ZM124.05-31.55L133.15-31.55 133.15-8.55Q133.15-7.45 133.7-6.95 134.25-6.45 135.55-6.45L135.55-6.45 138.45-6.45 139.45-0.5Q138.45-0.1 137.02 0.15 135.6 0.4 134.15 0.53 132.7 0.65 131.65 0.65L131.65 0.65Q128.15 0.65 126.12-1.18 124.1-3 124.1-6.25L124.1-6.25 124.05-31.55ZM124.6-24.85L139.6-24.85 139.6-19.2 119.8-19.2 119.8-24.6 124.6-24.85ZM155.4-25.55L155.4-25.55Q160.29-25.55 163.25-24.28 166.2-23 167.5-20.13 168.79-17.25 168.79-12.4L168.79-12.4Q168.79-7.6 167.5-4.78 166.2-1.95 163.25-0.68 160.29 0.6 155.4 0.6L155.4 0.6Q150.5 0.6 147.55-0.68 144.6-1.95 143.3-4.78 142-7.6 142-12.4L142-12.4Q142-17.25 143.3-20.13 144.6-23 147.55-24.28 150.5-25.55 155.4-25.55ZM155.4-19.2L155.4-19.2Q153.85-19.2 153.02-18.65 152.2-18.1 151.85-16.65 151.5-15.2 151.5-12.4L151.5-12.4Q151.5-9.65 151.85-8.2 152.2-6.75 153.02-6.23 153.85-5.7 155.4-5.7L155.4-5.7Q156.95-5.7 157.79-6.23 158.65-6.75 158.97-8.2 159.29-9.65 159.29-12.4L159.29-12.4Q159.29-15.2 158.97-16.65 158.65-18.1 157.79-18.65 156.95-19.2 155.4-19.2ZM172.94-24.85L180.04-24.85 181.14-19.85 182.04-19.2 182.04 0 172.94 0 172.94-24.85ZM190.74-25.55L192.14-25.55 191.34-17.2 188.94-17.2Q187.44-17.2 185.64-16.9 183.84-16.6 181.09-15.9L181.09-15.9 180.54-20.85Q183.04-23.2 185.67-24.38 188.29-25.55 190.74-25.55L190.74-25.55ZM207.49-25.55L207.49-25.55Q214.19-25.55 217.04-23.35 219.89-21.15 219.89-16.85L219.89-16.85Q219.94-13.4 217.99-11.8 216.04-10.2 211.09-10.2L211.09-10.2 197.49-10.2 197.49-14.75 208.54-14.75Q210.24-14.75 210.72-15.25 211.19-15.75 211.19-17.05L211.19-17.05Q211.14-18.5 210.39-19 209.64-19.5 207.79-19.5L207.79-19.5Q206.04-19.55 205.12-19.1 204.19-18.65 203.84-17.3 203.49-15.95 203.49-13.25L203.49-13.25Q203.49-10.55 203.92-9.1 204.34-7.65 205.47-7.05 206.59-6.45 208.64-6.45L208.64-6.45Q210.24-6.45 212.87-6.58 215.49-6.7 218.39-7L218.39-7 219.24-1.5Q217.64-0.7 215.72-0.25 213.79 0.2 211.74 0.4 209.69 0.6 207.64 0.6L207.64 0.6Q202.64 0.6 199.64-0.8 196.64-2.2 195.32-5.08 193.99-7.95 193.99-12.3L193.99-12.3Q193.99-17.2 195.34-20.1 196.69-23 199.67-24.28 202.64-25.55 207.49-25.55Z" fill="#dcdcdc" data-fill-palette-color="secondary"></path></g></svg></g></svg></g></svg></g></svg></g><g transform="matrix(1,0,0,1,414.98243585723804,0)"><svg viewBox="0 0 143.76750704658826 113.93401427804181" height="113.93401427804181" width="143.76750704658826"><g><svg version="1.1" xmlns="http://www.w3.org/2000/svg" xmlns:xlink="http://www.w3.org/1999/xlink" x="0" y="0" viewBox="0.06200000271201134 10.716999053955078 99.9990005493164 79.24800109863281" enable-background="new 0.062 10.717 100 79.248" xml:space="preserve" width="143.76750704658826" height="113.93401427804181" class="icon-icon-0" data-fill-palette-color="accent" id="icon-0"><path d="M85.852 17.327c1.549-0.289 2.724-1.641 2.724-3.274 0-1.844-1.494-3.336-3.338-3.336h-70.35c-1.843 0-3.336 1.492-3.336 3.336 0 1.632 1.173 2.985 2.722 3.274L0.062 44.758v5.338c0 2.396 2.54 4.338 5.671 4.338 1.051 0 2.033-0.224 2.877-0.605v36.136h82.902V53.829c0.846 0.383 1.825 0.605 2.879 0.605 3.131 0 5.67-1.941 5.67-4.338v-5.338L85.852 17.327zM16.839 54.433c-2.986 0-5.407-1.94-5.407-4.337v-0.5h-0.027v-4.837l10.716-27.369h8.561l-8.435 27.369v5.338c0 0.001 0 0.002 0 0.002C22.245 52.492 19.825 54.433 16.839 54.433zM38.999 54.433c-2.987 0-5.408-1.94-5.408-4.337v-0.5l0 0v-4.837l4.479-27.369h8.534l-2.197 27.369v4.837 0.5C44.405 52.491 41.984 54.433 38.999 54.433zM61.154 54.433c-2.985 0-5.406-1.94-5.406-4.337v-0.5-4.837l-2.2-27.369h8.508l4.479 27.369v5.338c0 0.073 0.012 0.146 0.016 0.216C66.407 52.606 64.049 54.433 61.154 54.433zM88.692 50.096c0 2.396-2.421 4.337-5.407 4.337-2.985 0-5.406-1.94-5.406-4.337v-0.5-4.837l-8.438-27.369h8.562l10.716 27.369v4.837h-0.026V50.096L88.692 50.096z" fill="#dcdcdc" data-fill-palette-color="accent"></path></svg></g></svg></g></svg></g></svg><rect width="395.52" height="80.64999719383866" fill="none" stroke="none" visibility="hidden"></rect></g></svg></g></svg>